HIERARCHY
ROOT Joint1
{
	OFFSET 0.000000 0.000000 0.000000
	CHANNELS 6 Xposition Yposition Zposition Xrotation Yrotation Zrotation
	JOINT Joint2
	{
		OFFSET -0.000000 0.000000 1.456275
		CHANNELS 6 Xposition Yposition Zposition Xrotation Yrotation Zrotation
		JOINT Joint3
		{
			OFFSET -0.000000 0.000002 1.471446
			CHANNELS 6 Xposition Yposition Zposition Xrotation Yrotation Zrotation
			JOINT Joint4
			{
				OFFSET 0.625745 0.000000 0.917755
				CHANNELS 6 Xposition Yposition Zposition Xrotation Yrotation Zrotation
				JOINT Joint5
				{
					OFFSET -0.629534 0.000001 0.940221
					CHANNELS 6 Xposition Yposition Zposition Xrotation Yrotation Zrotation
					JOINT Joint6
					{
						OFFSET -0.000001 0.113772 1.960660
						CHANNELS 6 Xposition Yposition Zposition Xrotation Yrotation Zrotation
						JOINT Joint7
						{
							OFFSET -0.669733 -0.113771 0.388340
							CHANNELS 6 Xposition Yposition Zposition Xrotation Yrotation Zrotation
							End Site
							{
								OFFSET 0.005509 0.005509 0.438980
							}
						}
					}
				}
			}
		}
	}
}
MOTION
Frames: 19
Frame Time: 0.041667
0.000000 0.000000 0.000000 -0.000000 1.019410 -20.614915 -0.000000 0.000000 1.456275 0.000001 -47.320879 0.000000 -0.000000 0.000002 1.471446 -0.000001 -1.133459 -22.788827 0.625744 0.000001 0.917755 0.000007 139.693829 -0.000004 -0.629534 0.000001 0.940221 -0.000002 1.709737 64.604717 -0.000001 0.113772 1.960660 -88.303875 123.717812 -0.000004 -0.669733 -0.113771 0.388341 -0.679183 3.565848 133.500801 
0.000000 0.000000 0.000000 -0.000000 1.019410 -21.233460 -0.000000 0.000000 1.456275 0.000000 -47.391063 0.000002 -0.000000 0.000002 1.471446 -0.000002 -1.133463 -23.471592 0.625744 0.000000 0.917755 0.000005 139.834108 -0.000004 -0.629534 0.000001 0.940221 -0.000002 1.709736 66.543787 -0.000001 0.113772 1.960660 -88.303882 124.730142 0.000000 -0.669733 -0.113771 0.388340 -0.678403 3.565830 133.456869 
0.000000 0.000000 0.000000 -0.000000 1.019410 -21.883487 -0.000000 0.000000 1.456275 -0.000001 -47.464825 0.000002 -0.000000 0.000002 1.471446 -0.000002 -1.133463 -24.189108 0.625744 0.000000 0.917755 0.000004 139.981531 -0.000003 -0.629534 0.000001 0.940221 -0.000005 1.709736 68.581567 -0.000001 0.113772 1.960661 -88.303875 125.794012 0.000000 -0.669733 -0.113771 0.388340 -0.677582 3.565806 133.410725 
0.000000 0.000000 0.000000 -0.000000 1.019410 -22.549098 -0.000000 0.000000 1.456275 0.000000 -47.540354 -0.000001 -0.000000 0.000002 1.471446 -0.000001 -1.133460 -24.923823 0.625744 0.000000 0.917755 0.000005 140.132505 -0.000001 -0.629534 0.000001 0.940221 -0.000002 1.709737 70.668204 -0.000001 0.113772 1.960660 -88.303875 126.883372 -0.000001 -0.669733 -0.113771 0.388340 -0.676741 3.565784 133.363460 
0.000000 0.000000 0.000000 -0.000000 1.019410 -23.214471 -0.000000 0.000000 1.456275 0.000003 -47.615861 -0.000001 -0.000000 0.000002 1.471446 0.000000 -1.133460 -25.658275 0.625744 0.000000 0.917754 0.000006 140.283398 -0.000002 -0.629534 0.000001 0.940221 -0.000004 1.709737 72.754075 -0.000001 0.113772 1.960660 -88.303875 127.972350 0.000004 -0.669733 -0.113771 0.388340 -0.675906 3.565761 133.316195 
0.000000 0.000000 0.000000 -0.000000 1.019410 -23.864092 -0.000000 -0.000000 1.456275 -0.000001 -47.689573 0.000001 -0.000001 0.000002 1.471446 -0.000002 -1.133462 -26.375348 0.625744 0.000000 0.917755 0.000008 140.430738 -0.000003 -0.629533 0.000001 0.940221 -0.000004 1.709737 74.790606 -0.000001 0.113772 1.960660 -88.303875 129.035551 0.000003 -0.669733 -0.113771 0.388341 -0.675084 3.565737 133.270091 
0.000000 0.000000 0.000000 -0.000000 1.019410 -24.482559 -0.000000 -0.000000 1.456275 -0.000000 -47.759749 -0.000002 -0.000000 0.000002 1.471446 -0.000002 -1.133464 -27.058022 0.625745 0.000000 0.917755 0.000006 140.570989 -0.000002 -0.629534 0.000001 0.940221 0.000003 1.709736 76.729416 -0.000001 0.113772 1.960661 -88.303875 130.047744 0.000003 -0.669733 -0.113771 0.388341 -0.674310 3.565709 133.226187 
0.000000 0.000000 0.000000 -0.000000 1.019410 -25.054433 -0.000000 -0.000000 1.456275 0.000001 -47.824636 0.000001 -0.000000 0.000002 1.471446 -0.000003 -1.133461 -27.689268 0.625745 0.000000 0.917755 0.000000 140.700695 -0.000003 -0.629534 0.000001 0.940221 -0.000001 1.709736 78.522197 -0.000001 0.113772 1.960660 -88.303875 130.983713 0.000003 -0.669733 -0.113771 0.388340 -0.673581 3.565695 133.185561 
0.000000 0.000000 0.000000 -0.000000 1.019410 -25.571374 -0.000000 -0.000000 1.456275 0.000003 -47.883311 -0.000001 -0.000000 0.000002 1.471446 -0.000000 -1.133463 -28.259885 0.625745 0.000000 0.917755 0.000003 140.817942 -0.000002 -0.629534 0.000001 0.940221 -0.000001 1.709737 80.142769 -0.000001 0.113772 1.960660 -88.303882 131.829782 0.000003 -0.669733 -0.113771 0.388341 -0.672929 3.565669 133.148869 
0.000000 0.000000 0.000000 -0.000000 1.019410 -26.053354 -0.000000 -0.000000 1.456275 0.000001 -47.937997 0.000001 -0.000000 0.000002 1.471446 -0.000002 -1.133461 -28.791891 0.625745 0.000000 0.917755 0.000003 140.927252 0.000001 -0.629534 0.000001 0.940221 -0.000002 1.709737 81.653709 -0.000001 0.113772 1.960661 -88.303882 132.618587 0.000008 -0.669733 -0.113771 0.388341 -0.672324 3.565650 133.114622 
0.000000 0.000000 0.000000 -0.000000 1.019410 -26.527388 -0.000000 -0.000000 1.456275 0.000000 -47.991785 0.000002 -0.000000 0.000002 1.471446 -0.000001 -1.133463 -29.315134 0.625745 0.000001 0.917755 0.000003 141.034746 -0.000004 -0.629534 0.000001 0.940220 0.000000 1.709736 83.139754 -0.000001 0.113772 1.960660 -88.303875 133.394414 0.000003 -0.669733 -0.113771 0.388339 -0.671730 3.565633 133.080963 
0.000000 0.000000 0.000000 -0.000000 1.019410 -27.020510 -0.000000 0.000000 1.456275 -0.000001 -48.047748 -0.000001 -0.000000 0.000002 1.471446 -0.000002 -1.133463 -29.859470 0.625745 0.000001 0.917755 0.000000 141.146583 -0.000002 -0.629533 0.000001 0.940221 -0.000002 1.709735 84.685678 -0.000001 0.113772 1.960660 -88.303875 134.201469 0.000010 -0.669733 -0.113771 0.388340 -0.671103 3.565606 133.045938 
0.000000 0.000000 0.000000 -0.000000 1.019410 -27.559769 -0.000000 0.000000 1.456275 -0.000000 -48.108936 0.000002 -0.000000 0.000002 1.471446 -0.000002 -1.133464 -30.454714 0.625744 0.000000 0.917755 0.000000 141.268898 -0.000001 -0.629534 0.000001 0.940221 -0.000007 1.709737 86.376191 -0.000001 0.113772 1.960661 -88.303875 135.084053 0.000005 -0.669733 -0.113771 0.388340 -0.670426 3.565584 133.007661 
0.000000 0.000000 0.000000 -0.000000 1.019410 -28.161970 -0.000000 0.000000 1.456275 -0.000002 -48.177269 0.000002 -0.000000 0.000002 1.471446 -0.000004 -1.133461 -31.119442 0.625745 0.000001 0.917755 0.000001 141.405475 -0.000004 -0.629534 0.000001 0.940221 -0.000001 1.709735 88.264048 -0.000001 0.113772 1.960660 -88.303875 136.069649 0.000003 -0.669733 -0.113771 0.388340 -0.669668 3.565558 132.964904 
0.000000 0.000000 0.000000 -0.000000 1.019410 -28.803096 -0.000000 0.000000 1.456275 0.000002 -48.250020 -0.000000 -0.000000 0.000002 1.471446 -0.000002 -1.133461 -31.827121 0.625745 0.000001 0.917755 -0.000001 141.550889 -0.000002 -0.629533 0.000001 0.940221 -0.000001 1.709737 90.273914 -0.000001 0.113772 1.960661 -88.303875 137.118944 0.000005 -0.669733 -0.113771 0.388340 -0.668860 3.565527 132.919361 
0.000000 0.000000 0.000000 -0.000000 1.019410 -29.448890 -0.000000 -0.000000 1.456275 0.000002 -48.323298 0.000003 -0.000000 0.000002 1.471446 -0.000001 -1.133463 -32.539967 0.625745 0.000001 0.917755 0.000005 141.697356 0.000000 -0.629534 0.000001 0.940221 -0.000003 1.709736 92.298402 -0.000001 0.113772 1.960660 -88.303882 138.175861 0.000005 -0.669733 -0.113771 0.388341 -0.668048 3.565500 132.873517 
0.000000 0.000000 0.000000 -0.000000 1.019410 -30.065106 -0.000000 0.000000 1.456275 -0.000001 -48.393222 -0.000002 -0.000000 0.000002 1.471446 0.000002 -1.133458 -33.220155 0.625745 0.000000 0.917755 0.000003 141.837115 0.000000 -0.629534 0.000001 0.940220 -0.000004 1.709737 94.230191 -0.000001 0.113772 1.960660 -88.303889 139.184379 0.000002 -0.669733 -0.113771 0.388341 -0.667267 3.565467 132.829749 
0.000000 0.000000 0.000000 -0.000000 1.019410 -30.626032 -0.000000 -0.000000 1.456275 -0.000006 -48.456876 0.000003 -0.000000 0.000002 1.471446 -0.000000 -1.133466 -33.839318 0.625744 0.000000 0.917755 0.000001 141.964334 -0.000002 -0.629534 0.000001 0.940221 0.000001 1.709735 95.988630 -0.000001 0.113772 1.960660 -88.303882 140.102411 0.000001 -0.669733 -0.113771 0.388340 -0.666557 3.565442 132.789929 
0.000000 0.000000 0.000000 -0.000000 1.019410 -31.140082 -0.000000 0.000000 1.456275 0.000001 -48.515209 -0.000002 -0.000000 0.000002 1.471446 0.000000 -1.133463 -34.406736 0.625744 0.000000 0.917755 0.000002 142.080912 -0.000005 -0.629534 0.000001 0.940221 -0.000007 1.709738 97.600145 -0.000001 0.113772 1.960660 -88.303882 140.943740 0.000001 -0.669733 -0.113771 0.388340 -0.665913 3.565419 132.753428 
